<svg xmlns="http://www.w3.org/2000/svg" viewBox="0 0 500 500"><g id="freepik--background-complete--inject-300"><rect x="383.98" y="390.64" width="43.69" height="13.91" transform="translate(811.64 795.18) rotate(180)" style="fill:#ebebeb"></rect><rect x="333.16" y="162.64" width="43.69" height="13.91" transform="translate(710.02 339.18) rotate(180)" style="fill:#ebebeb"></rect><path d="M408.35,422.08c7.26-.1,25.84-.35,32.84-.42l10.85,0-.46.46,0-13.91.5.5c-7.26,0-25.76-.07-32.77-.15l-10.92-.11.24-.24-.24,13.91Zm0,0-.24-13.91v-.23h.24c5.45-.05,16.4-.16,21.84-.19l21.85-.07h.5v.5l-.05,13.91v.45H452l-11,0c-7-.06-25.51-.32-32.69-.41Z" style="fill:#ebebeb"></path><path d="M223.66,316.5c7.26-.1,25.84-.35,32.85-.42l10.84,0-.46.46,0-13.91.5.5c-7.25,0-25.76-.07-32.77-.15l-10.92-.11.24-.24-.24,13.91Zm0,0-.24-13.91v-.24h.24c5.45-.05,16.4-.16,21.85-.19l21.84-.07h.5v.5l0,13.91V317h-.45l-11,0c-7-.06-25.5-.32-32.69-.41Z" style="fill:#ebebeb"></path><path d="M248,334c7.26-.1,25.84-.35,32.85-.41l10.84-.05-.45.46,0-13.91.5.5c-7.25,0-25.76-.07-32.77-.15L248,320.36l.24-.24L248,334Zm0,0-.23-13.91v-.23H248c5.45-.06,16.4-.16,21.85-.2l21.84-.07h.5v.5l0,13.91v.46h-.46l-11-.05c-7-.06-25.5-.31-32.69-.41Z" style="fill:#ebebeb"></path><rect x="272.31" y="302.59" width="43.69" height="13.91" transform="translate(588.31 619.09) rotate(180)" style="fill:#ebebeb"></rect><rect x="47.96" y="408.17" width="43.69" height="13.91" transform="translate(139.61 830.25) rotate(180)" style="fill:#ebebeb"></rect><rect x="72.33" y="44.93" width="43.69" height="13.91" transform="translate(188.36 103.77) rotate(180)" style="fill:#ebebeb"></rect><path d="M48,76.37c7.26-.1,25.84-.35,32.85-.41l10.84,0-.45.45,0-13.9.5.5c-7.25,0-25.76-.08-32.77-.16L48,62.7l.24-.23L48,76.37Zm0,0-.24-13.9v-.24H48c5.45-.06,16.4-.16,21.85-.19L91.65,62h.5v.5l0,13.9v.46h-.46l-11,0c-7-.07-25.5-.32-32.69-.42Z" style="fill:#ebebeb"></path><path d="M384,58.84c7.26-.1,25.84-.35,32.84-.41l10.85,0-.46.46,0-13.91.5.5c-7.26,0-25.76-.07-32.77-.15L384,45.17l.23-.24L384,58.84Zm0,0-.24-13.91V44.7H384c5.45-.06,16.39-.16,21.84-.2l21.85-.07h.5v.5l-.05,13.91v.46h-.45l-11,0c-7-.06-25.51-.31-32.69-.41Z" style="fill:#ebebeb"></path><rect x="54.35" y="93.64" width="142.37" height="158.85" style="fill:#dbdbdb"></rect><rect x="63.73" y="103.02" width="123.62" height="140.17" style="fill:#ebebeb"></rect><rect x="74.9" y="127.8" width="43.57" height="51.63" style="fill:#fff"></rect><path d="M98.26,131.32a1.57,1.57,0,1,1-1.57-1.57A1.56,1.56,0,0,1,98.26,131.32Z" style="fill:#455a64"></path><path d="M83.2,138.15c4.4-.34,8.81-.36,13.21-.41s8.81.06,13.22.41c-4.41.34-8.81.36-13.22.41S87.6,138.49,83.2,138.15Z" style="fill:#ebebeb"></path><path d="M83.2,142.23a63.16,63.16,0,0,1,14.37,0,63.16,63.16,0,0,1-14.37,0Z" style="fill:#ebebeb"></path><path d="M83.2,146.31a90.94,90.94,0,0,1,9.18-.41,90.94,90.94,0,0,1,9.18.41c-3.06.32-6.12.39-9.18.41S86.26,146.63,83.2,146.31Z" style="fill:#ebebeb"></path><path d="M83.2,150.39c3.83-.32,7.65-.4,11.48-.41s7.66.09,11.49.41c-3.83.32-7.66.39-11.49.41S87,150.71,83.2,150.39Z" style="fill:#ebebeb"></path><path d="M83.2,154.47c3.32-.32,6.65-.4,10-.41s6.65.09,10,.41c-3.32.32-6.65.39-10,.41S86.52,154.79,83.2,154.47Z" style="fill:#ebebeb"></path><path d="M83.2,158.55c4.25-.34,8.51-.36,12.77-.41s8.52.07,12.77.41c-4.25.34-8.51.36-12.77.41S87.45,158.89,83.2,158.55Z" style="fill:#ebebeb"></path><path d="M83.2,162.63a76,76,0,0,1,8.25-.41,73.51,73.51,0,0,1,8.25.41,83.21,83.21,0,0,1-16.5,0Z" style="fill:#ebebeb"></path><path d="M83.2,166.71c4.4-.34,8.81-.36,13.21-.41s8.81.07,13.22.41c-4.41.34-8.81.36-13.22.41S87.6,167.05,83.2,166.71Z" style="fill:#ebebeb"></path><path d="M83.2,170.79c4.4-.34,8.81-.36,13.21-.41s8.81.07,13.22.41c-4.41.34-8.81.36-13.22.41S87.6,171.13,83.2,170.79Z" style="fill:#ebebeb"></path><rect x="125.11" y="160" width="51.56" height="61.09" style="fill:#fff"></rect><path d="M152.46,168.24a1.57,1.57,0,1,1-1.57-1.57A1.58,1.58,0,0,1,152.46,168.24Z" style="fill:#455a64"></path><path d="M132.33,175.24a36.56,36.56,0,0,1,5.71-.41,35.51,35.51,0,0,1,5.72.41,40,40,0,0,1-11.43,0Z" style="fill:#ebebeb"></path><path d="M132.33,179.85a59.11,59.11,0,0,1,7.4-.41,57.36,57.36,0,0,1,7.4.41,61.18,61.18,0,0,1-7.4.41A63.17,63.17,0,0,1,132.33,179.85Z" style="fill:#ebebeb"></path><path d="M132.33,184.45a57.51,57.51,0,0,1,13.71,0,57.51,57.51,0,0,1-13.71,0Z" style="fill:#ebebeb"></path><path d="M132.33,189.06a52.47,52.47,0,0,1,6.85-.41,50.83,50.83,0,0,1,6.86.41,57.51,57.51,0,0,1-13.71,0Z" style="fill:#ebebeb"></path><path d="M132.33,193.66a39.66,39.66,0,0,1,5.95-.4,38.43,38.43,0,0,1,6,.4,37.24,37.24,0,0,1-6,.41A38.4,38.4,0,0,1,132.33,193.66Z" style="fill:#ebebeb"></path><path d="M132.33,198.27a71.11,71.11,0,0,1,15.25,0,62.93,62.93,0,0,1-7.63.41A64.85,64.85,0,0,1,132.33,198.27Z" style="fill:#ebebeb"></path><path d="M132.33,202.88a48.45,48.45,0,0,1,12.58,0,48.45,48.45,0,0,1-12.58,0Z" style="fill:#ebebeb"></path><path d="M132.33,207.48a71.9,71.9,0,0,1,7.89-.41,69.51,69.51,0,0,1,7.89.41,65.17,65.17,0,0,1-7.89.41A67.27,67.27,0,0,1,132.33,207.48Z" style="fill:#ebebeb"></path><path d="M132.33,212.09a76.12,76.12,0,0,1,15.78,0,67.27,67.27,0,0,1-7.89.41A69.51,69.51,0,0,1,132.33,212.09Z" style="fill:#ebebeb"></path><path d="M154.86,175.24a62.56,62.56,0,0,1,7.49-.41,60.76,60.76,0,0,1,7.49.41,68.62,68.62,0,0,1-15,0Z" style="fill:#ebebeb"></path><path d="M154.86,179.85a26.36,26.36,0,0,1,4.92-.41,25.71,25.71,0,0,1,4.93.41,27.42,27.42,0,0,1-4.93.41A28.17,28.17,0,0,1,154.86,179.85Z" style="fill:#ebebeb"></path><path d="M154.86,184.45a60.73,60.73,0,0,1,14.09,0,60.73,60.73,0,0,1-14.09,0Z" style="fill:#ebebeb"></path><path d="M154.86,189.06a52.47,52.47,0,0,1,6.85-.41,50.83,50.83,0,0,1,6.86.41,57.51,57.51,0,0,1-13.71,0Z" style="fill:#ebebeb"></path><path d="M154.86,193.66a62.55,62.55,0,0,1,7.49-.4,60.74,60.74,0,0,1,7.49.4,58.86,58.86,0,0,1-7.49.41A60.55,60.55,0,0,1,154.86,193.66Z" style="fill:#ebebeb"></path><path d="M154.86,198.27a43.45,43.45,0,0,1,11.91,0,38.44,38.44,0,0,1-6,.41A39.67,39.67,0,0,1,154.86,198.27Z" style="fill:#ebebeb"></path><path d="M154.86,202.88a60.73,60.73,0,0,1,14.09,0,60.73,60.73,0,0,1-14.09,0Z" style="fill:#ebebeb"></path><path d="M154.86,207.48a34.4,34.4,0,0,1,5.45-.41,33.42,33.42,0,0,1,5.45.41,31.34,31.34,0,0,1-5.45.41A32.19,32.19,0,0,1,154.86,207.48Z" style="fill:#ebebeb"></path><path d="M154.86,212.09a33.56,33.56,0,0,1,10.46,0,29.82,29.82,0,0,1-5.23.41A30.65,30.65,0,0,1,154.86,212.09Z" style="fill:#ebebeb"></path><rect x="114.47" y="113.61" width="26.22" height="26.22" style="fill:#c7c7c7"></rect><path d="M129.14,116.27a1.57,1.57,0,1,1-1.56-1.57A1.56,1.56,0,0,1,129.14,116.27Z" style="fill:#455a64"></path><rect x="183.69" y="103.02" width="3.54" height="140.32" style="fill:#c7c7c7"></rect></g><g id="freepik--Table--inject-300"><path d="M449.87,447.9c-128,.62-271.69.62-399.74,0,128.05-.61,271.69-.61,399.74,0Z" style="fill:#263238"></path></g><g id="freepik--Plant--inject-300"><path d="M428.35,328.86c-19.66,19.24-23,49-18.82,75.09.11.59,1,.43,1-.13,0-5.94-.18-11.82-.16-17.68.1-.27.19-.52.3-.79,5.13-3.73,9.85-7.94,12.77-13.72,3.28-6.45,4.57-13.74,7.08-20.48.23-.64-.45-.45-.9-.12-12,8.82-15.77,18.3-19.2,31a105,105,0,0,1,2.08-19.74c2.58-12,7.69-24,16.34-32.89C429.19,329,428.69,328.52,428.35,328.86Z" style="fill:#263238"></path><path d="M432,331.11c3.38.11,5.5,5.51,8.13,7.09,1.4.84,2.76.79,3.74-.59,2.61-3.64-1-8.14-4.34-10.65,2.41,1,4.4,2.73,7,3.22,1.57.29,2.8-.29,3.16-1.89,1.15-5-5.08-7.18-9.36-7.28,2.07-1.44,8-5.36,4.86-7.29s-10.17,3.67-12.45,5.51c-3.34,2.72-7.32,6.77-7.47,11C425.11,335.19,429.44,332.14,432,331.11Z" style="fill:#FFC727"></path><path d="M432,331.11c3.38.11,5.5,5.51,8.13,7.09,1.4.84,2.76.79,3.74-.59,2.61-3.64-1-8.14-4.34-10.65,2.41,1,4.4,2.73,7,3.22,1.57.29,2.8-.29,3.16-1.89,1.15-5-5.08-7.18-9.36-7.28,2.07-1.44,8-5.36,4.86-7.29s-10.17,3.67-12.45,5.51c-3.34,2.72-7.32,6.77-7.47,11C425.11,335.19,429.44,332.14,432,331.11Z" style="opacity:0.2"></path><path d="M431.06,331.94c4.32-2,12.63.86,13.33-.77,1.44-3.33-5.2-5.62-8.78-6.06,3.3-.89,9.62-2.32,9.42-5.5-.23-3.88-9.69-.54-14.48,3.13-6,4.62-6,9.08-5,10C426.92,333.94,430.35,332.26,431.06,331.94Z" style="fill:#FFC727"></path><path d="M431.06,331.94c4.32-2,12.63.86,13.33-.77,1.44-3.33-5.2-5.62-8.78-6.06,3.3-.89,9.62-2.32,9.42-5.5-.23-3.88-9.69-.54-14.48,3.13-6,4.62-6,9.08-5,10C426.92,333.94,430.35,332.26,431.06,331.94Z" style="opacity:0.1"></path><path d="M383.59,327c20.37,18.48,24.8,48.1,21.65,74.31-.09.6-1,.47-1-.09-.22-5.93-.27-11.81-.51-17.67-.12-.27-.22-.51-.33-.78-5.27-3.53-10.14-7.56-13.28-13.22-3.53-6.33-5.1-13.55-7.86-20.19-.26-.64.44-.48.9-.16,12.28,8.35,16.45,17.69,20.36,30.23a105,105,0,0,0-2.83-19.65c-3-11.93-8.6-23.65-17.57-32.24A.37.37,0,0,1,383.59,327Z" style="fill:#263238"></path><path d="M380,329.34c-3.37.24-5.29,5.72-7.86,7.4-1.36.89-2.72.89-3.75-.44-2.75-3.55.66-8.18,3.93-10.82-2.37,1.08-4.3,2.9-6.88,3.49a2.44,2.44,0,0,1-3.23-1.77c-1.33-4.92,4.81-7.37,9.08-7.64-2.13-1.36-8.21-5.05-5.13-7.09s10.3,3.28,12.64,5c3.45,2.59,7.58,6.49,7.9,10.72C387.06,333.16,382.62,330.28,380,329.34Z" style="fill:#FFC727"></path><path d="M380,329.34c-3.37.24-5.29,5.72-7.86,7.4-1.36.89-2.72.89-3.75-.44-2.75-3.55.66-8.18,3.93-10.82-2.37,1.08-4.3,2.9-6.88,3.49a2.44,2.44,0,0,1-3.23-1.77c-1.33-4.92,4.81-7.37,9.08-7.64-2.13-1.36-8.21-5.05-5.13-7.09s10.3,3.28,12.64,5c3.45,2.59,7.58,6.49,7.9,10.72C387.06,333.16,382.62,330.28,380,329.34Z" style="opacity:0.2"></path><path d="M381,330.14c-4.4-1.8-12.59,1.34-13.35-.27-1.56-3.27,5-5.81,8.55-6.39-3.33-.76-9.71-2-9.63-5.13.09-3.89,9.67-.92,14.59,2.57,6.2,4.39,6.33,8.85,5.37,9.78C385.2,332,381.71,330.43,381,330.14Z" style="fill:#FFC727"></path><path d="M381,330.14c-4.4-1.8-12.59,1.34-13.35-.27-1.56-3.27,5-5.81,8.55-6.39-3.33-.76-9.71-2-9.63-5.13.09-3.89,9.67-.92,14.59,2.57,6.2,4.39,6.33,8.85,5.37,9.78C385.2,332,381.71,330.43,381,330.14Z" style="opacity:0.1"></path><path d="M404.42,375.76A200.63,200.63,0,0,0,410.74,405a.73.73,0,0,0,1.43-.28c-1.34-9-3.78-17.85-5.12-26.85a134.56,134.56,0,0,1-1.56-27.56c.85-15.18,5-31.32,14.88-43.19.21-.28-.25-.68-.47-.42-19.83,23.12-16.67,51.45-16.65,54-2.81-9.57-5.7-20.53-16.32-30.28-.45-.42-.81-.22-.74.5,1.9,17.74,6.84,27,17.13,36.5C403.61,370.2,404,373,404.42,375.76Z" style="fill:#263238"></path><path d="M420.55,309.76c3.56-1.58,8.48,3,12,3.27,1.87.16,3.25-.57,3.57-2.49.88-5.1-5.1-8-9.86-8.87,3-.19,6,.61,8.89-.18,1.78-.5,2.75-1.72,2.33-3.56-1.32-5.73-8.9-4.89-13.38-2.84,1.42-2.54,5.61-9.6,1.37-10s-8.71,8.93-10.14,12c-2.1,4.49-4.2,10.7-2.22,15.18C415.41,317.49,418.37,312.15,420.55,309.76Z" style="fill:#FFC727"></path><path d="M420.55,309.76c3.56-1.58,8.48,3,12,3.27,1.87.16,3.25-.57,3.57-2.49.88-5.1-5.1-8-9.86-8.87,3-.19,6,.61,8.89-.18,1.78-.5,2.75-1.72,2.33-3.56-1.32-5.73-8.9-4.89-13.38-2.84,1.42-2.54,5.61-9.6,1.37-10s-8.71,8.93-10.14,12c-2.1,4.49-4.2,10.7-2.22,15.18C415.41,317.49,418.37,312.15,420.55,309.76Z" style="opacity:0.2"></path><path d="M420,311.12c3.5-4.22,13.54-5.46,13.45-7.52-.2-4.17-8.23-3.2-12.17-1.86,3-2.59,8.81-7.25,7-10.45-2.2-3.91-10.33,4.32-13.45,10.53-3.93,7.84-1.65,12.45-.16,12.87C416.67,315.28,419.37,311.81,420,311.12Z" style="fill:#FFC727"></path><path d="M420,311.12c3.5-4.22,13.54-5.46,13.45-7.52-.2-4.17-8.23-3.2-12.17-1.86,3-2.59,8.81-7.25,7-10.45-2.2-3.91-10.33,4.32-13.45,10.53-3.93,7.84-1.65,12.45-.16,12.87C416.67,315.28,419.37,311.81,420,311.12Z" style="opacity:0.1"></path><path d="M391.38,381.11l-8.75,66.79h53.2c-1.09-5.92-11-66.87-11-66.87Z" style="fill:#FFC727"></path></g><g id="freepik--Shelf--inject-300"><rect x="240.18" y="148.01" width="204.12" height="10.47" style="fill:#455a64"></rect><rect x="249.59" y="158.48" width="7.36" height="34.63" style="fill:#455a64"></rect><rect x="249.59" y="158.48" width="7.36" height="10.7" style="fill:#263238"></rect><rect x="427.54" y="158.48" width="7.36" height="34.63" style="fill:#455a64"></rect><rect x="427.54" y="158.48" width="7.36" height="10.7" style="fill:#263238"></rect><path d="M419.91,86a40.91,40.91,0,0,1-7.86,24.19h0a41.17,41.17,0,1,1-33.3-65.36c1.13,0,2.25,0,3.36.13a40.91,40.91,0,0,1,18,5.84,41.49,41.49,0,0,1,11,9.74,42,42,0,0,1,2.57,3.65A41,41,0,0,1,419.91,86Z" style="fill:#455a64"></path><path d="M387.64,105.45c-.52,1.39.35,1.44.4,2s0,1.67-1.67,3.34-4.44,1.33-5,2-1.56,3.63-2.94,4.61-1.62.41-3.58.81-3.46,2.94-4,4.15.11,3.23-1.27,3.29-2-2.94-3.29-4.56a10.66,10.66,0,0,1-2.07-4.95c-.41-1.91.23-5.88,0-7.44s-4.38-4.32-5.88-6.23-3.58-5.7-3.46-7a5.14,5.14,0,0,1,1.73-3.17c.69-.52.4-.81.52-1.27s.69-.58.8-1.15-.34-2.31-.92-2.6-1,.69-1.32.52-1.39-1.38-1.79-1.5-.29.75-.87-.34-.86-3.87-1.32-4.33-.81.81-1.9,0-1.56-2.36-2-2.59-1.1.06-1.57-.87.42-2.59,0-2.42-1.31,1.5-1.54.23,1.15-5.53.92-7.84a9.18,9.18,0,0,1,2.19-6.68s.23-1.27.46-2.08,5.19-4,5.76-5a4.51,4.51,0,0,0,.41-1.64,41,41,0,0,1,24.37-8c1.13,0,2.25,0,3.36.13a.83.83,0,0,0,.11.15,4.82,4.82,0,0,0,2.5,1.58c1.46.54,1.81,1.23,1.5,1.81a1.49,1.49,0,0,1-1.39.73c-.57,0-1.11-.27-1.72.11s-1.23,2.46-2,2.58-2.23-1.85-2.54-2.42.69-1.81.22-2.39-1.29-.46-2.6-.57-4.34.38-4.23.88,4.46-.08,4.57.92-3.18,2.69-3.76,2.54-1.35-1.15-2.19-1.27-1.54.58-2.07.66-1.16-.58-2-.43-1,.85-1.42,1.12-1.42.27-1.54.88,1.27,1,1.62,1.35-.43,1.69-.08,2,2.5-1.62,3-2.08,1-2.46,2.15-2.42,1.54,2,1.92,2.19,1.23-.46,2.5-.19,2.15,3,2.38,3.88.77,1.69.31,2a3.32,3.32,0,0,1-2.81-.77c-.27-.54,1.39-1.35,1.27-1.54a1.64,1.64,0,0,0-1.57-.16c-.5.3-.73.93-1.27,1.08s-2-1.46-2.35-1,.39,1.93.77,2.27,1.81.54,1.92.92-1,1.23-2.26,1.16-2.39-1.08-2.89-.66-.23,1.54-.57,1.92-2.23.12-3.15,1.12-1.35,2.5-2.27,3.34-1.35-.23-2.58,1S358.2,71.1,358.16,72s0,1.65-.3,1.54a2.62,2.62,0,0,1-.85-1.43c-.12-.5.27-1.34.27-1.65a5.49,5.49,0,0,0-2.81-2c-1-.15-2,.7-2.72,1.31s-2.16.5-2.66,1-.88,4.92-.5,6,.89,1,2.12.5.54-1.58,1.27-1.35a1.72,1.72,0,0,1,1.11,1.62c0,.61-1.46,2.07-1.27,2.49s1.46-.07,2.08.12.92.58.73,2.15-.08,2.81.84,3.33,1.44-.75,1.85-.58,1,1.09,1.55,1,.29-.58,1.39-.93.69-.57.92-1.26a1.27,1.27,0,0,1,1.67-.93c.75.35.23.87.29,1.44s1.38.64,2.42,1,1.62,0,3.69.7,2.19,2.76,3.06,3.11,3.74-.23,5.82,1.27,1.5,4.26,2.53,5.07,4.9,1.9,6.4,2.19,1.73-.75,2.94-.46a2.56,2.56,0,0,1,2.31,2.31C392.66,101,388.16,104.07,387.64,105.45Z" style="fill:#FFC727"></path><path d="M356.66,76c0,.32,1,.46,2.16,1.11s1.57,2.58,2.19,2.54.42-.92.65-1.16a.73.73,0,0,0,0-1.22c-.61-.5-1.21-1.58-2.34-1.73s-1.31-.62-1.81-.58A.88.88,0,0,0,356.66,76Z" style="fill:#FFC727"></path><path d="M363,79.2c-.18.48,0,.81,1.23,1.12s2.38-.31,2-.56-1-.13-.73-.56.16-1-.84-.92S363.16,78.78,363,79.2Z" style="fill:#FFC727"></path><path d="M367.31,79.34c-.42.06-.65.79-.23,1.25s.42.38.92,0,1.27-.58,1.08-1S367.73,79.28,367.31,79.34Z" style="fill:#FFC727"></path><path d="M370.65,80.91c.19-.58,1.16,0,1.58.6a2.49,2.49,0,0,1,0,2.15c-.23.66-.39,1.43-.92,1.12s0-1.23,0-1.77S370.5,81.38,370.65,80.91Z" style="fill:#FFC727"></path><path d="M387.22,48.84c-.2.49.73.66,1.27,1s1,.49,1.26,0a.85.85,0,0,0-.53-1.2C388.79,48.5,387.41,48.38,387.22,48.84Z" style="fill:#FFC727"></path><path d="M394.48,53.34c.36.37,1,.31,1.38.85s.27,1.46.81,1.73.92,0,1-.39-.77-1.34-.69-1.54,1.11.27,1.35.85-.24,1.38.3,1.54.43-.54.66-.69.73-.08.69-.54a3.57,3.57,0,0,0-1.15-1.81,4.28,4.28,0,0,0-1.73-.92,2.55,2.55,0,0,0-2.08.31C394.56,53.07,394.26,53.11,394.48,53.34Z" style="fill:#FFC727"></path><path d="M411.11,60.58a.72.72,0,0,1-.22.41c-.81.57-1.77-1.42-2.88-1.81s-1.61-1.8-1.85-1.5-.15.73-.5,1.23-.84.39-1.07,1.35,1.07,2.73.77,3.3-.69.39-1.31.35-.5.5-1.31.27-.11-1.23-1.38-2.42-1.69-1.42-1.42-2-.12-1.31.46-1.39,1,.77,1.42,1,.89-.46.92-1.07-1.34-1.46-1.84-1.94a3.45,3.45,0,0,1-.35-2.56c.2-.35.77-.23.93-1.08.09-.49-.7-1.32-1.37-1.92A41.49,41.49,0,0,1,411.11,60.58Z" style="fill:#FFC727"></path><path d="M416.85,95c.11-1.23-.5-1.31.11-3.58a6.56,6.56,0,0,0-1.11-5.18c-.46-.5-1.46-.35-2.27.15s-.23.88-.77,1.08-1.07-.12-1.57-.08-1,1.31-2,1.27-1.77-1.58-2.57-2.67-2.46-1.79-3-3.14.5-3.42.27-5-1.27-1.23-1.46-2.12.15-.46.42-1.3-.31-1.31.23-2.77,1.5-2.19,1.27-2.84a11.16,11.16,0,0,1-1-2.5c0-.76.73-.73,2.19-1.81s1.84-1,3-.61a16.55,16.55,0,0,0,2.46.69c.65.11,1.54,1.81,1.8,1.73s.31-.58.43-1.31a1.6,1.6,0,0,1,.48-.83,41.2,41.2,0,0,1-1.63,46C416,104.24,416.73,96.27,416.85,95Z" style="fill:#FFC727"></path><path d="M426.1,86a46.88,46.88,0,0,1-1.33,12.58l-.36,1.55-.5,1.52-1,3-1.32,2.92c-.22.48-.42,1-.67,1.45l-.79,1.4a48,48,0,0,1-7.73,10.23L410,122.91c-.77.75-1.68,1.34-2.52,2a49.66,49.66,0,0,1-5.36,3.6c-.94.54-1.92,1-2.88,1.47l-1.46.73c-.49.22-1,.39-1.5.59l-3,1.14-3.13.84-1.57.42L387,134l-3.2.51-3.25.2-1.62.09c-.54,0-1.08,0-1.62-.05l-3.25-.15c-1.08-.11-2.15-.3-3.22-.45a52.94,52.94,0,0,1-6.35-1.42c-1-.33-2.05-.73-3.07-1.09l-1.53-.56c-.5-.21-1-.46-1.47-.69L355.44,129l-2.79-1.68a22.39,22.39,0,0,1-2.68-1.85c-.86-.66-1.76-1.27-2.58-2a51.2,51.2,0,0,1-4.66-4.54,46.68,46.68,0,0,1-7.37-10.67L334,105.28c-.42-1-.74-2-1.12-3l-.54-1.53c-.17-.52-.27-1-.41-1.57L331.11,96a51.23,51.23,0,0,1-.77-12.9,47.56,47.56,0,0,1,8.6-24,47,47,0,0,1,19.53-15.87,48.29,48.29,0,0,0-18.32,16.69,47.27,47.27,0,0,0-7.48,23.29,53.34,53.34,0,0,0,1,12.23l.8,3c.13.49.24,1,.41,1.47l.54,1.44c.37,1,.69,1.92,1.1,2.86l1.36,2.75a24.19,24.19,0,0,0,1.51,2.66c.55.85,1,1.77,1.64,2.58a45.12,45.12,0,0,0,3.85,4.75,49.06,49.06,0,0,0,4.4,4.25c.78.66,1.63,1.23,2.44,1.85l1.22.91c.42.3.87.54,1.3.81,13.72,9,32.28,9.49,46.77,1.74a50.42,50.42,0,0,0,10-7.19,46.29,46.29,0,0,0,7.83-9.57l.84-1.31c.27-.44.49-.91.73-1.37l1.43-2.78,1.15-2.9.58-1.46.42-1.5c.29-1,.59-2,.85-3l.56-3.09c.1-.52.21-1,.29-1.55l.13-1.57Z" style="fill:#263238"></path><polygon points="362.48 48.77 356.9 51.42 352.97 39.67 355.84 38.31 362.48 48.77" style="fill:#263238"></polygon><rect x="376.65" y="133.38" width="5.98" height="14.65" style="fill:#263238"></rect><rect x="357.72" y="142.58" width="43.83" height="5.43" style="fill:#263238"></rect></g><g id="freepik--Book--inject-300"><rect x="217.16" y="450.01" width="219.8" height="5.41" style="fill:#FFC727"></rect><polygon points="312.42 450.01 312.42 441.96 230.93 443.54 220.22 450.01 312.42 450.01" style="fill:#ebebeb"></polygon><path d="M312.42,450V442s26.49.46,31.18,0,28.63-2.69,32.51-2.48,11.44,4.78,11.44,4.78V450Z" style="fill:#dbdbdb"></path><path d="M434.81,450l-1.92-4.57s-11.65.24-13.33,0-17.48-4.81-20.9-4.19-11.11,3-11.11,3V450Z" style="fill:#dbdbdb"></path></g><g id="freepik--Character--inject-300"><rect x="60.05" y="318.03" width="154.39" height="81.06" style="fill:#FFC727"></rect><rect x="60.05" y="318.03" width="154.39" height="81.06" style="opacity:0.5"></rect><rect x="50.21" y="318.03" width="9.84" height="81.06" transform="translate(110.26 717.12) rotate(180)" style="fill:#FFC727"></rect><rect x="50.21" y="318.03" width="9.84" height="81.06" transform="translate(110.26 717.12) rotate(180)" style="opacity:0.7000000000000001"></rect><rect x="74.39" y="399.09" width="15.27" height="48.76" style="fill:#c7c7c7"></rect><rect x="184.82" y="399.09" width="15.27" height="48.76" style="fill:#c7c7c7"></rect><path d="M86.18,373A4.15,4.15,0,1,1,82,368.87,4.14,4.14,0,0,1,86.18,373Z" style="fill:#fff"></path><path d="M196.6,373a4.14,4.14,0,1,1-4.14-4.14A4.14,4.14,0,0,1,196.6,373Z" style="fill:#fff"></path><path d="M200,305.84c20.27,2.07,100.18-11.22,120.13-35.63,10.56-12.9,8.06-109.77,7.15-118.51-.6-5.72-65.11-2.59-64.37,6.18,2,23.62,9.07,79,3.92,83.62-15.69,14-38.15,22.39-66.64,38.36C180.34,291,177.63,303.56,200,305.84Z" style="fill:#ad6359"></path><path d="M322,115c5.3,12.12,6.44,41.15,4,48.26s-51.71,10.69-56.85,5-19.82-47.93-16.31-61S316.51,102.47,322,115Z" style="fill:#ad6359"></path><path d="M251.49,128.41c7,.74,7.21-5,7.21-5s1,13.56,8.52,15.45c7.24,1.79,8.66-9.22,8.77-10,.06.71,1.3,13.15,9.05,14.27,8,1.15,7.57-10.15,7.54-10.88.26.66,4,9.32,10,8.83,10.44-.85,1.6-23.24,5.3-30.88,0,0,13.66,4.8,14.08,4.85,0,0-8-21.48-18.55-25.9a7.33,7.33,0,0,0-8.85,2.41s-1.81-7.21-7.88-8.28c-3.12-.54-6.76,4-6.76,4s-1.69-5.71-7.15-6.32c-4.35-.51-7.33,4.09-7.33,4.09s-2.58-30.27-10.6-30.52c-13.81-.42-4.65,64-9.09,68.21C243.59,124.75,248.45,128.09,251.49,128.41Z" style="fill:#ad6359"></path><path d="M264.9,85.64a.1.1,0,0,0-.18-.08c-5.62,11.42-8.31,25.69-6.15,38.31.07.41,1.41,1.84,1.36,1.37C258.68,113.52,260.93,98.54,264.9,85.64Z" style="fill:#263238"></path><path d="M279.93,87c0-.14-.19-.22-.26-.08-5.73,11.8-8.31,28-4.11,42.21.14.49.76.78.64.21C274.13,119.68,276.29,98.62,279.93,87Z" style="fill:#263238"></path><path d="M293.21,133.13c-3.49-13.83-2.2-27.38,1.12-41.11,0-.18-.21-.23-.29-.09-3.46,6.28-4.66,15.25-5,22.31a37.49,37.49,0,0,0,3.7,19C292.84,133.49,293.29,133.42,293.21,133.13Z" style="fill:#263238"></path><path d="M258.53,123.56c.09.5,1.13-.66,1.23-.17,1.14,5.36,3.64,14.85,8.21,14.92,3.67,0,6.26-4.85,6.52-7.12l.66-5.71,1.37,5.59a23.62,23.62,0,0,0,2.92,7c1.35,2.1,3.25,3.84,5.48,4.16a4.79,4.79,0,0,0,5.41-2.71,14.32,14.32,0,0,0,1.11-7.19l-.44-6.8,2.63,6.25a21.79,21.79,0,0,0,2.83,4.87,9.08,9.08,0,0,0,4.14,3.24,4.32,4.32,0,0,0,4.44-1,9.46,9.46,0,0,0,1.87-5c.52-3.83.22-7.83.12-11.8-.07-2-.14-4-.11-6a14.24,14.24,0,0,1,1-5.89,15.53,15.53,0,0,0-.45,5.88c.13,2,.35,4,.56,5.94a63.57,63.57,0,0,1,.51,12.06,11,11,0,0,1-2.05,6.09,6.11,6.11,0,0,1-6.49,1.77,11.14,11.14,0,0,1-5.25-3.87,24.7,24.7,0,0,1-3.23-5.39l2.19-.55a16.8,16.8,0,0,1-1.23,8.52,7,7,0,0,1-3.31,3.36,7.88,7.88,0,0,1-4.62.54c-3.17-.53-5.48-2.89-6.94-5.26a25.66,25.66,0,0,1-3.1-7.78l2-.12c-.43,2.87-2.74,8.66-8.43,9.31C260.57,140.41,258.69,126.19,258.53,123.56Z" style="fill:#263238"></path><path d="M269.17,168.24S239.35,147.05,236.61,135s16.68-31.47,24.89-37.42c11.33-8.21,16.07.74,13.66,7.91-2.79,8.31-10.92,18.85-11.47,19.6,0,0,21.19,3.32,27.24,17.72S269.17,168.24,269.17,168.24Z" style="fill:#ad6359"></path><path d="M247.14,111.28a91.87,91.87,0,0,1,11.37-12.13,27.16,27.16,0,0,1,7-4.8c4.52-2.07,10-.48,11,4.83,1.52,8-6.86,20.75-12.15,26.5l-.59-1.5c10.53,1.23,20.61,7.11,26,16.3a36.17,36.17,0,0,0-18.7-13,38.76,38.76,0,0,0-9.24-1.65l1.21-1.35c4.63-5.31,12.77-17.74,11.57-24.89-.65-4.23-5-5.22-8.54-3.74a28.54,28.54,0,0,0-6.8,4.27,125.62,125.62,0,0,0-12.14,11.19Z" style="fill:#263238"></path><path d="M266.85,301.32l-23.6-46.75S210.9,271,186.32,288.18,175.11,313.25,201,311.75,266.85,301.32,266.85,301.32Z" style="fill:#FFC727"></path><path d="M236.55,261.25a424,424,0,0,0,19.8,39.11c.11.19.42,0,.33-.18a421.55,421.55,0,0,0-19.76-39.13C236.81,260.84,236.46,261,236.55,261.25Z" style="fill:#263238"></path><path d="M223.22,309.35c-7.71,1.11-15.42,2-22.18,2.4-25.92,1.5-39.29-6.37-14.72-23.57,2.4-1.68,4.87-3.35,7.38-5Z" style="opacity:0.1"></path><path d="M83.91,447.85H244.6c2.17-1.62-17.85-118.79-43.31-159.24-4.77-7.57-27.6-19.13-45.46-5.43C101.9,324.53,81.89,445.26,83.91,447.85Z" style="fill:#FFC727"></path><path d="M198.05,285.07h-44.6c.79-.64,1.58-1.28,2.38-1.89h39.69A28.23,28.23,0,0,1,198.05,285.07Zm9.49,15.15H138.62c-.51.62-1,1.25-1.51,1.88h71.3Zm7,17H126.64c-.39.62-.77,1.25-1.15,1.89h89.79C215.05,318.5,214.81,317.87,214.58,317.25Zm5.79,17H117.22c-.32.63-.62,1.25-.93,1.88H221C220.76,335.54,220.57,334.91,220.37,334.29Zm5,17H109.45c-.27.63-.53,1.26-.79,1.89H225.91C225.74,352.58,225.56,352,225.39,351.32Zm4.47,17h-127c-.23.63-.45,1.25-.67,1.88H230.33C230.18,369.61,230,369,229.86,368.36Zm4,17H97.21c-.2.63-.39,1.26-.58,1.89h137.7C234.19,386.66,234.05,386,233.9,385.39Zm3.66,17H92.36c-.17.63-.33,1.26-.49,1.88H238C237.82,403.69,237.7,403.06,237.56,402.43Zm3.29,17H88.26c-.15.64-.28,1.27-.41,1.89H241.19C241.08,420.73,241,420.1,240.85,419.46Zm2.82,17H85c-.1.65-.2,1.28-.29,1.88H243.93C243.85,437.78,243.76,437.15,243.67,436.5Z" style="opacity:0.1"></path><path d="M148.12,290.38c-37.83,49.28-83.93,139.4-73.78,155.93,12.87,20.95,91.33,11.58,109.42,6.05,7.71-2.36-8.42-69.66-16.72-67.31-7.23,2.05-22.19,4.78-22.51,3.78s12.52-34.38,22.69-81.91C174.15,274.53,156.14,279.93,148.12,290.38Z" style="fill:#ad6359"></path><path d="M110.44,412.6c4.51-6.73,18.66-19.39,33.8-23.49.34-.09.6.12.3.27a169.83,169.83,0,0,0-34,23.34C110.49,412.78,110.39,412.68,110.44,412.6Z" style="fill:#263238"></path><path d="M156.18,388.62s23.87-14.57,38.78-18.34c20-5,39.28-1.19,47.27.92,16.69,4.39,54,26.56,49.5,38.43-4.08,10.74-41.08-13.85-41.08-13.85s41.86,18.84,34.57,30.87-48.62-19-48.62-19,42.57,20.32,33.09,31.53c-7.16,8.48-46.18-17.48-46.18-17.48S260,439.47,253,448.5c-7.72,10-45.24-11.73-45.24-11.73-21.64,20-40.11,20.62-53.31,19.52C151.25,456,156.18,388.62,156.18,388.62Z" style="fill:#ad6359"></path><path d="M236.59,388.33c5,2,10.07,4.06,14.87,6.54s9.51,5.11,14.06,8c11.15,7.13,17,13.35,16.62,13-9.56-8.14-26.61-17.26-31.41-19.73s-9.45-5.18-14.24-7.65C236.37,388.45,236.47,388.28,236.59,388.33Z" style="fill:#263238"></path><path d="M227.34,405.5c6.27,2.87,12.6,5.5,18.74,8.65s11.64,6.65,17.53,10.2c.45.28.15.43-.31.17-6-3.31-11.84-5.91-17.9-9.15s-12-6.72-18.14-9.73C227.17,405.6,227.25,405.46,227.34,405.5Z" style="fill:#263238"></path><path d="M216.76,418.81c9.8,3.9,18.88,9.61,27.64,15.42.44.29,0,.45-.43.18-9.09-5.3-16.19-9.53-27.35-15.26C216.45,419.06,216.55,418.73,216.76,418.81Z" style="fill:#263238"></path><path d="M103.62,351l50.1,15.27s10.51-34.73,15.07-64.37-10.37-25.43-27.2-5.67S103.62,351,103.62,351Z" style="fill:#FFC727"></path><path d="M166.27,327.44a.11.11,0,0,0-.2-.08q-1.11,2.46-2.2,4.94c.66-3.29,1.26-6.6,1.78-9.93,0-.11-.16-.16-.19-.05-2,7.22-4,14.44-5.83,21.7s-4.1,14.43-5.91,21.71c-1.42-.19-2.19-.37-3.25-.47-.25,0-.39.25-.15.35,1.36.58,4,1.43,4.11,1.25,2.63-7,4.62-14.83,6.55-22.06q1.43-5.35,2.54-10.74A63.67,63.67,0,0,0,166.27,327.44Z" style="fill:#263238"></path><path d="M153.52,356.82a426.43,426.43,0,0,0-41.94-12.74c-.21-.05-.3.3-.1.37a422.1,422.1,0,0,0,41.93,12.77C153.64,357.28,153.74,356.9,153.52,356.82Z" style="fill:#263238"></path><path d="M169.5,286.81c.8,2.71,14.92,19.81,27.45,18.51,4.07-.43,2.72-22.8,2.72-22.8l.28-1.67,3.86-23.43-32.22-18S169.18,285.66,169.5,286.81Z" style="fill:#ad6359"></path><path d="M203.81,257.43l-3.87,23.41-.27,1.69s.24,4.05.21,8.73c-17.26-1.58-25.82-14-29.74-22.67.62-13.35,1.45-29.16,1.45-29.16Z" style="fill:#263238"></path><path d="M234.12,213.24c12.14,49.41-16.08,62.26-26.74,64.87-9.67,2.37-42.91,9.2-60.1-38.69s1.95-69.16,23.79-75.75S222,163.83,234.12,213.24Z" style="fill:#ad6359"></path><path d="M215.89,220.53c5.53-1.1,7.33,10.05,2.2,11.07S211.25,221.45,215.89,220.53Z" style="fill:#263238"></path><path d="M187.48,226.12c-5.58.89-3.39,12,1.78,11.15S192.15,225.38,187.48,226.12Z" style="fill:#263238"></path><path d="M218.33,212.89c-1.2.06-2.32-.08-3.51-.13-1.34-.07-2.42,0-3.55-.82a1.81,1.81,0,0,1-.38-2.18c.89-1.46,2.56-1.79,4.18-1.78a6.59,6.59,0,0,1,4.48,1.59A1.93,1.93,0,0,1,218.33,212.89Z" style="fill:#263238"></path><path d="M181.68,220.72a31.61,31.61,0,0,0,3.26-1.3c1.25-.51,2.29-.79,3.08-2a1.82,1.82,0,0,0-.38-2.18c-1.33-1.08-3-.83-4.54-.28a6.58,6.58,0,0,0-3.68,3A1.93,1.93,0,0,0,181.68,220.72Z" style="fill:#263238"></path><path d="M197.84,255.85c.91.72,1.86,1.74,3.12,1.71a9.21,9.21,0,0,0,3.6-1.28c.11,0,.23.05.17.16a4.63,4.63,0,0,1-4.16,2.35c-1.59-.1-2.51-1.36-3-2.74C197.45,255.85,197.71,255.75,197.84,255.85Z" style="fill:#263238"></path><path d="M210,241.1s1.56,5,2,7.39c0,.22-.53.43-1.34.61,0,0,0,0-.09,0a11.58,11.58,0,0,1-11.83-2.4c-.21-.2.05-.5.3-.39,3.56,1.79,7.17,1.8,10.95,1.23.06-.7-3-8.54-2.59-8.54,1.65,0,4.59.24,5.68.32-1-3.26-4.09-12.39-5.8-18.33-.1-.37.46-.59.61-.26a163.67,163.67,0,0,1,8,20.23C216.07,241.52,211.07,241.34,210,241.1Z" style="fill:#263238"></path><path d="M145.26,242.45c14.53-.39,20.39-18.33,15.66-31.85,0,0,38.87,1.35,37.71-29.64a30.37,30.37,0,0,0,26.29,11.4l6.19,10.47c3.83-1.52,6.13-12.65-4.35-20.48,0,0-2.16-15.3-14.38-23.41s-22.88-1-22.88-1-9.73-6.64-23.69-3.45-18.53,16.65-18.53,16.65-18.66,5.48-20.58,19.3,5.94,22.2,5.94,22.2-4.25,5.77-.7,17C134.22,237,140.9,242.57,145.26,242.45Z" style="fill:#263238"></path><path d="M197.51,178.31a36.08,36.08,0,0,1,.82,7.52,30.63,30.63,0,0,1-.68,7.41,19.51,19.51,0,0,1-7.81,11.92c-3.89,3.06-9,4-13.8,4.93-2.5.17-5,.52-7.52.54s-5.05-.07-7.6,0c2.51.36,5.05.6,7.59.91,2.54.15,5.11,0,7.68,0,5.05-.7,10.36-1.65,14.68-4.84A20.44,20.44,0,0,0,199,193.51,30.81,30.81,0,0,0,197.51,178.31Z" style="fill:#263238"></path><path d="M147.28,171.18a35.65,35.65,0,0,0-13.85,4.45,21.4,21.4,0,0,0-9.75,11,23.46,23.46,0,0,0-1.11,7.39,21.65,21.65,0,0,0,1.08,7.36,20,20,0,0,0,9,11.28A21.91,21.91,0,0,1,125,201a24.42,24.42,0,0,1,.39-13.77,18.44,18.44,0,0,1,3.45-5.93,28,28,0,0,1,5.34-4.52A45.37,45.37,0,0,1,147.28,171.18Z" style="fill:#263238"></path><path d="M189.5,158a36.34,36.34,0,0,1,11.06-3.28,22.09,22.09,0,0,1,11.07,1.35,22.47,22.47,0,0,1,8.75,6.91,39.47,39.47,0,0,1,5.6,10.1,28.79,28.79,0,0,0-4.5-10.91,19.86,19.86,0,0,0-21.12-8.8A27.54,27.54,0,0,0,189.5,158Z" style="fill:#263238"></path><path d="M219,194.19a40.3,40.3,0,0,1-12.25-5.13,24.51,24.51,0,0,1-4.95-4.25,29.76,29.76,0,0,1-3.79-5.52,16.55,16.55,0,0,0,2.71,6.37,18,18,0,0,0,5,4.88,22.16,22.16,0,0,0,6.38,2.86A20.77,20.77,0,0,0,219,194.19Z" style="fill:#263238"></path><path d="M157.79,241.67s-13.42-14-19.93-9S143.14,259.19,152,261a8.61,8.61,0,0,0,10.68-6.35Z" style="fill:#ad6359"></path><path d="M141.39,238.77a.12.12,0,0,0,0,.23c6.24,1.46,10.17,6.42,13.21,11.72-2.08-1.9-4.64-2.72-7.23-.19-.13.13,0,.35.21.29a5.29,5.29,0,0,1,6,.93,25.7,25.7,0,0,1,3.48,4.22c.36.48,1.26,0,1-.52,0,0-.05-.08-.07-.13C157,247.83,149.53,238.27,141.39,238.77Z" style="fill:#263238"></path></g></svg>